<?xml version="1.0" standalone="no"?>
<!DOCTYPE svg PUBLIC "-//W3C//DTD SVG 20010904//EN"
 "http://www.w3.org/TR/2001/REC-SVG-20010904/DTD/svg10.dtd">
<svg version="1.0" xmlns="http://www.w3.org/2000/svg"
 width="913.000000pt" height="614.000000pt" viewBox="0 0 913.000000 614.000000"
 preserveAspectRatio="xMidYMid meet">
<metadata>
Created by potrace 1.14, written by Peter Selinger 2001-2017
</metadata>
<g transform="translate(0.000000,614.000000) scale(0.100000,-0.100000)"
fill="#000000" stroke="none">
<path d="M3544 5106 c-5 -14 0 -96 41 -671 8 -110 24 -330 35 -490 11 -159 22
-312 25 -340 10 -95 65 -831 74 -1001 6 -94 7 -196 4 -226 l-6 -56 -96 -17
c-504 -89 -1046 -192 -1026 -194 44 -6 1331 1 1336 7 4 4 3 77 -1 162 -17 290
-30 574 -40 860 -5 157 -14 355 -20 440 -5 85 -17 313 -25 505 -8 193 -20 430
-25 529 -8 133 -8 182 1 192 16 20 1514 21 1522 2 4 -13 -17 -546 -47 -1168
-9 -173 -22 -479 -31 -680 -8 -201 -17 -403 -20 -450 -2 -47 -8 -156 -11 -242
l-6 -158 673 1 674 1 -170 33 c-93 19 -278 55 -410 80 -269 52 -554 113 -568
122 -5 3 -6 26 -3 52 4 25 17 204 31 396 25 361 63 876 90 1235 76 1013 79
1055 72 1074 -6 15 -91 16 -1037 16 -891 0 -1031 -2 -1036 -14z"/>
<path d="M3242 4735 c-122 -12 -225 -25 -229 -28 -3 -4 9 -75 27 -159 52 -241
53 -248 46 -255 -3 -4 -59 -12 -124 -19 -122 -13 -344 -40 -399 -50 -41 -6
-41 -16 -4 -107 17 -40 149 -371 295 -737 146 -366 294 -739 331 -830 86 -216
96 -235 120 -233 61 5 107 17 112 29 3 7 0 28 -5 46 -28 90 -165 518 -177 553
-7 22 -30 94 -50 160 -53 169 -115 364 -200 625 -41 124 -75 238 -77 255 l-3
29 113 16 c79 12 115 13 121 6 8 -10 66 -259 126 -546 15 -69 37 -174 50 -235
13 -60 45 -211 71 -335 26 -124 64 -299 84 -390 l36 -165 64 2 c38 1 68 7 77
15 14 15 3 93 -106 728 -22 129 -63 379 -91 555 -28 176 -69 421 -90 544 -22
124 -37 227 -34 230 3 4 45 11 92 16 l87 10 -2 90 c-4 127 -12 193 -26 197 -7
3 -112 -5 -235 -17z"/>
<path d="M5651 4743 c-14 -28 -25 -269 -13 -277 6 -4 48 -9 92 -13 57 -4 83
-10 87 -20 5 -13 -16 -154 -67 -458 -155 -918 -262 -1597 -254 -1605 6 -6 40
-13 77 -17 64 -6 66 -5 71 18 3 13 13 56 22 94 8 39 26 120 39 180 91 429 157
740 170 795 7 36 25 117 39 180 70 323 89 406 97 414 9 10 194 -11 221 -25 14
-8 11 -23 -29 -151 -24 -79 -71 -228 -104 -333 -33 -104 -84 -264 -114 -355
-30 -91 -95 -295 -146 -455 -50 -159 -97 -309 -104 -332 -17 -52 -10 -58 71
-68 l61 -7 35 84 c19 46 59 144 88 218 29 74 186 465 347 869 162 403 291 736
288 739 -5 6 -113 20 -383 51 -90 10 -168 23 -172 27 -5 5 9 90 31 189 42 195
46 223 27 230 -13 4 -423 45 -452 45 -8 0 -19 -8 -25 -17z"/>
<path d="M3923 4704 c-6 -15 7 -365 27 -749 6 -99 17 -358 25 -575 24 -648 27
-714 36 -730 6 -10 9 -2 9 25 0 22 3 69 5 105 3 36 10 223 15 415 5 193 14
454 20 580 5 127 14 351 20 499 6 148 13 272 16 277 3 5 217 9 478 9 362 0
476 -3 488 -12 14 -11 18 -69 28 -443 6 -236 13 -461 15 -500 6 -83 22 -498
31 -777 3 -109 10 -198 14 -198 4 0 10 73 14 163 4 89 11 252 16 362 6 110 17
382 25 605 8 223 22 526 30 674 8 148 12 272 9 277 -3 5 -299 9 -660 9 -591 0
-655 -2 -661 -16z"/>
<path d="M4510 4228 l0 -53 -56 -24 c-68 -30 -128 -95 -150 -165 -12 -36 -18
-105 -21 -232 -5 -156 -3 -189 12 -235 29 -89 69 -159 144 -252 l71 -88 0
-327 c0 -311 -1 -325 -17 -309 -16 15 -19 45 -23 215 l-5 197 -90 0 -90 0 -8
-110 c-5 -66 -4 -144 2 -195 21 -178 64 -255 169 -305 l62 -29 0 -58 0 -58 65
0 65 0 0 59 0 58 48 18 c86 32 140 87 171 175 20 56 34 364 21 435 -19 100
-69 187 -182 317 l-58 67 2 323 3 323 23 -22 c21 -22 22 -30 22 -182 0 -115 3
-161 13 -168 6 -5 50 -6 97 -3 l85 5 -1 140 c-2 256 -51 362 -192 415 -47 18
-47 18 -50 69 l-3 51 -65 0 -64 0 0 -52z m-1 -495 c-1 -217 -1 -226 -17 -193
-20 45 -31 365 -13 399 26 48 31 17 30 -206z m170 -843 c18 -84 15 -307 -4
-336 -8 -13 -20 -24 -25 -24 -6 0 -10 89 -10 238 1 207 2 233 14 206 8 -17 19
-55 25 -84z"/>
<path d="M1817 2063 c-4 -3 -7 -15 -7 -25 0 -13 8 -18 29 -18 62 0 62 3 59
-373 l-3 -342 -33 -11 c-42 -13 -54 -25 -42 -44 7 -12 46 -14 222 -15 199 0
217 1 269 23 118 47 191 125 230 244 30 95 25 228 -13 311 -53 115 -168 205
-308 242 -57 15 -390 22 -403 8z m445 -86 c105 -61 161 -166 175 -323 11 -131
-54 -273 -152 -334 -49 -30 -192 -40 -247 -17 l-38 16 0 335 c0 308 1 336 18
346 10 6 54 9 107 7 77 -2 98 -7 137 -30z"/>
<path d="M4474 2055 c-9 -24 14 -44 54 -47 l37 -3 3 -352 2 -353 -22 -4 c-13
-3 -32 -7 -43 -8 -24 -4 -33 -37 -13 -50 18 -12 739 -7 756 5 15 11 -2 37 -24
37 -8 0 -14 6 -14 13 0 14 67 97 78 97 10 -1 72 -85 72 -98 0 -7 -6 -12 -14
-12 -19 0 -28 -26 -13 -37 9 -6 167 -9 220 -4 4 1 7 8 7 16 0 8 -18 22 -40 31
-28 11 -59 40 -105 95 -36 43 -65 81 -65 85 0 3 18 28 40 54 31 37 50 50 86
59 34 9 45 16 42 29 -3 14 -17 17 -93 18 -53 1 -93 -3 -97 -9 -9 -15 2 -37 18
-37 19 0 18 -7 -7 -42 l-21 -29 -29 27 c-35 33 -36 40 -8 47 13 4 20 12 17 24
-3 16 -15 18 -113 19 -63 0 -113 -4 -117 -9 -12 -18 4 -37 30 -37 20 0 43 -17
89 -67 35 -37 63 -70 63 -73 0 -15 -116 -143 -137 -151 -44 -17 -53 -12 -53
30 0 52 -8 71 -31 71 -20 0 -39 -28 -39 -59 0 -11 -9 -25 -19 -31 -28 -15
-264 -13 -279 2 -9 9 -12 70 -12 215 0 236 -13 216 134 211 67 -2 91 -7 96
-18 21 -46 29 -55 46 -55 17 0 19 8 19 93 0 63 -4 97 -12 104 -17 14 -39 -4
-47 -38 l-7 -25 -112 3 -112 3 0 105 0 105 118 3 118 3 14 -35 c18 -42 31 -52
50 -36 16 13 10 95 -8 118 -7 9 -70 12 -254 12 -208 0 -244 -2 -249 -15z"/>
<path d="M3637 2043 c-14 -13 -6 -24 28 -39 21 -8 40 -25 45 -40 13 -33 13
-615 0 -648 -6 -16 -21 -28 -42 -34 -23 -6 -33 -14 -33 -28 0 -18 8 -19 125
-19 116 0 125 2 125 19 0 13 -11 23 -35 31 l-35 12 -5 374 c-3 206 -7 375 -8
377 -5 5 -159 1 -165 -5z"/>
<path d="M7154 1868 c-5 -7 -11 -48 -15 -90 -6 -83 -23 -114 -78 -141 -13 -7
-26 -18 -29 -24 -4 -13 3 -17 50 -27 l27 -6 3 -155 c3 -144 4 -156 25 -177 33
-32 83 -29 135 9 44 32 58 57 40 75 -6 6 -24 2 -51 -14 -57 -32 -62 -21 -59
137 l3 130 55 5 c47 4 55 8 55 25 0 17 -8 20 -57 23 l-57 3 -3 117 c-3 99 -5
117 -20 120 -9 2 -20 -3 -24 -10z"/>
<path d="M2771 1649 c-97 -19 -172 -96 -179 -185 -12 -144 116 -261 264 -240
90 12 187 70 153 92 -6 3 -41 -4 -78 -16 -74 -26 -114 -23 -169 10 -47 29 -72
76 -72 136 0 66 29 111 92 142 40 20 51 22 86 12 49 -13 92 -60 92 -100 l0
-29 -112 -3 c-105 -3 -113 -4 -113 -23 0 -19 8 -20 161 -23 180 -3 177 -4 164
66 -22 121 -145 189 -289 161z"/>
<path d="M3260 1649 c-43 -13 -70 -36 -70 -61 0 -24 26 -23 85 3 56 25 107 19
130 -14 18 -25 22 -216 5 -248 -25 -45 -106 -62 -161 -34 -48 25 -66 107 -34
152 20 29 76 44 118 32 48 -14 67 -11 67 9 0 25 -60 52 -113 52 -58 0 -140
-42 -167 -84 -36 -60 -23 -143 32 -192 51 -47 166 -56 237 -19 28 14 33 14 46
1 10 -10 24 -12 47 -7 18 4 45 4 60 0 37 -10 68 12 49 35 -7 9 -19 16 -26 16
-6 0 -19 8 -28 18 -14 15 -17 41 -17 133 0 125 -12 160 -65 195 -31 20 -145
28 -195 13z"/>
<path d="M4043 1650 c-68 -21 -96 -108 -52 -164 12 -15 47 -40 80 -56 71 -36
96 -70 83 -108 -12 -33 -53 -50 -91 -36 -17 6 -35 26 -51 57 -32 65 -57 62
-58 -8 -1 -28 1 -55 3 -62 13 -35 154 -57 215 -34 34 13 75 58 81 88 12 65
-23 114 -124 174 -86 50 -94 70 -41 98 33 18 76 -2 101 -45 28 -47 51 -37 51
22 0 39 -3 45 -31 60 -39 20 -123 27 -166 14z"/>
<path d="M5847 1644 c-48 -15 -68 -37 -50 -55 6 -6 25 -4 53 6 90 32 162 -28
168 -139 4 -76 -24 -129 -83 -163 -48 -27 -66 -28 -112 -6 -62 29 -73 60 -73
209 l0 132 -90 0 c-50 0 -93 -5 -96 -10 -9 -14 16 -38 42 -38 51 0 54 -15 54
-236 0 -224 -6 -256 -55 -288 -25 -17 -26 -20 -11 -28 39 -22 107 21 137 86
11 24 19 64 19 99 0 31 2 57 5 57 3 0 23 -9 45 -20 62 -31 154 -28 211 8 77
50 109 105 109 189 -1 144 -134 239 -273 197z"/>
<path d="M6327 1646 c-205 -56 -239 -287 -59 -393 63 -37 172 -39 244 -5 57
28 76 48 60 64 -9 9 -28 6 -77 -11 -73 -26 -117 -23 -172 10 -97 60 -97 203 0
267 70 47 164 25 193 -45 25 -58 18 -62 -108 -65 -105 -3 -113 -4 -113 -23 0
-19 7 -20 165 -20 l165 0 -1 48 c-1 124 -153 213 -297 173z"/>
<path d="M6913 1636 c-16 -13 -40 -48 -53 -77 l-25 -53 -5 50 -5 49 -65 6
c-70 6 -98 -4 -79 -27 6 -8 17 -14 25 -14 30 0 44 -43 44 -131 0 -122 -6 -144
-43 -160 -18 -8 -32 -21 -32 -29 0 -12 19 -15 115 -15 90 0 115 3 115 14 0 7
-16 21 -35 30 -34 16 -35 19 -34 67 2 69 51 171 107 221 54 48 62 60 47 78
-18 22 -45 18 -77 -9z"/>
</g>
</svg>
